<svg width="40" height="40" viewBox="0 0 40 40" fill="none" xmlns="http://www.w3.org/2000/svg">
<path d="M34.9999 35H36.6666M3.33325 35H28.3333H3.33325Z" stroke="#F9AD2B" stroke-width="2.5" stroke-linecap="round" stroke-linejoin="round"/>
<path d="M3.33325 27.3333V6C3.33325 5.73478 3.43861 5.48043 3.62615 5.29289C3.81368 5.10536 4.06804 5 4.33325 5H35.6666C35.9318 5 36.1862 5.10536 36.3737 5.29289C36.5612 5.48043 36.6666 5.73478 36.6666 6V27.3333C36.6666 27.5985 36.5612 27.8529 36.3737 28.0404C36.1862 28.228 35.9318 28.3333 35.6666 28.3333H4.33325C4.06804 28.3333 3.81368 28.228 3.62615 28.0404C3.43861 27.8529 3.33325 27.5985 3.33325 27.3333V27.3333Z" stroke="#F9AD2B" stroke-width="2.5"/>
</svg>
