<svg xmlns="http://www.w3.org/2000/svg" width="42" height="41" viewBox="0 0 42 41" fill="none">
<g clip-path="url(#clip0_518_2106)">
<path d="M7.4375 0.00415039H34.5625C38.675 0.00415039 42 3.33253 42 7.4492V33.5507C42 37.6674 38.675 40.9957 34.5625 40.9957H7.4375C3.325 40.9957 0 37.6674 0 33.5507V7.4492C0 3.33253 3.325 0.00415039 7.4375 0.00415039Z" fill="#330000"/>
<path d="M20.2999 24.5291H13.7899L12.4599 28.6458C12.4249 28.8034 12.2849 28.9086 12.1274 28.891H8.8374C8.6449 28.891 8.5924 28.7859 8.6449 28.5757L14.2799 12.3367C14.3324 12.1616 14.3849 11.9689 14.4549 11.7586C14.5249 11.3908 14.5599 11.0054 14.5599 10.62C14.5424 10.5324 14.6124 10.4448 14.6999 10.4273H19.2324C19.3724 10.4273 19.4424 10.4799 19.4599 10.5674L25.8474 28.6107C25.8999 28.8034 25.8474 28.891 25.6724 28.891H22.0149C21.8924 28.9086 21.7699 28.821 21.7349 28.6983L20.2999 24.5291ZM14.8049 20.973H19.2499C19.1449 20.6051 19.0049 20.1672 18.8474 19.7117C18.6899 19.2387 18.5324 18.7307 18.3749 18.2052C18.1999 17.6621 18.0424 17.1366 17.8674 16.5936C17.6924 16.0505 17.5349 15.5425 17.3949 15.0345C17.2549 14.544 17.1324 14.0885 17.0099 13.6681H16.9749C16.8174 14.4214 16.6249 15.1746 16.3799 15.9279C16.1174 16.7687 15.8549 17.6446 15.5749 18.5205C15.3299 19.4139 15.0674 20.2373 14.8049 20.973ZM29.7499 13.4929C29.1724 13.5104 28.6124 13.2827 28.1924 12.8798C27.7899 12.4418 27.5799 11.8638 27.5974 11.2682C27.5799 10.6725 27.8074 10.112 28.2274 9.70907C28.6474 9.30616 29.2074 9.09595 29.7849 9.09595C30.4674 9.09595 30.9924 9.30616 31.3774 9.70907C31.7624 10.1295 31.9724 10.6901 31.9549 11.2682C31.9724 11.8638 31.7624 12.4418 31.3424 12.8798C30.9399 13.3002 30.3449 13.5279 29.7499 13.4929ZM27.7899 28.6983V15.2097C27.7899 15.0345 27.8599 14.9644 28.0174 14.9644H31.4824C31.6399 14.9644 31.7099 15.052 31.7099 15.2097V28.6983C31.7099 28.891 31.6399 28.9786 31.4824 28.9786H28.0524C27.8774 28.9786 27.7899 28.8735 27.7899 28.6983Z" fill="#FF9A00"/>
</g>
<defs>
<clipPath id="clip0_518_2106">
<rect width="42" height="41" fill="white"/>
</clipPath>
</defs>
</svg>