<svg xmlns="http://www.w3.org/2000/svg" width="102" height="20" viewBox="0 0 102 20" fill="none">
<path d="M6.4617 19.6491H2.61824V9.98509H0V6.8387H2.61814V4.59981C2.61814 1.94672 3.77614 0.0439453 7.6092 0.0439453C8.4199 0.0439453 9.69265 0.20876 9.69265 0.20876V3.13036H8.35584C6.99373 3.13036 6.4619 3.54827 6.4619 4.70361V6.8387H9.64165L9.3585 9.98509H6.4618L6.4617 19.6491ZM15.2806 6.58726C15.2246 6.58726 15.167 6.58931 15.11 6.59075C11.5461 6.59075 9.91552 9.29466 9.91552 13.1329C9.91552 17.9681 12.0306 19.9033 15.1378 19.9033C16.9156 19.9033 18.0836 19.1486 18.7935 17.7401V19.6504H22.4492V6.84003H18.7935V8.81009C18.2138 7.54261 17.0132 6.60228 15.2806 6.58726ZM16.2101 9.61431C17.707 9.61431 18.6054 10.6674 18.6054 12.4587L18.6089 14.2882C18.6089 15.4955 17.8668 16.9079 16.2101 16.9079C13.6632 16.9079 13.7312 14.1341 13.7312 13.2102C13.7312 10.1025 15.0882 9.61431 16.2101 9.61431ZM23.9255 13.2459C23.9255 11.6892 23.8517 6.59559 30.4311 6.59559C33.0722 6.59559 34.175 7.44261 34.175 7.44261L33.2886 10.2155C33.2886 10.2155 32.1872 9.60382 30.7521 9.60382C28.9139 9.60382 27.741 10.6786 27.741 12.5697L27.7431 13.9256C27.7431 15.7427 28.8748 16.9557 30.7559 16.9557C32.0633 16.9557 33.2683 16.3382 33.2683 16.3382L34.1525 19.0532C34.1525 19.0532 33.1441 19.9056 30.4495 19.9056C24.1849 19.9056 23.9256 15.3356 23.9256 13.2459H23.9255ZM55.6096 6.59075C59.1736 6.59075 60.8298 9.29466 60.8298 13.1329C60.8298 17.9681 58.7147 19.9033 55.6074 19.9033C53.8297 19.9033 52.5155 19.1487 51.8056 17.7401V19.6504L48.1959 19.649V0.433451L52.0285 0.0963115V8.63653C52.5816 7.1424 54.3995 6.59075 55.6097 6.59075H55.6096ZM54.5351 9.61431C53.0383 9.61431 52.0285 10.6674 52.0285 12.4587L52.0249 14.2882C52.0227 15.4955 52.7242 16.9079 54.5351 16.9079C57.0821 16.9079 57.014 14.1341 57.014 13.2102C57.014 10.1025 55.6571 9.61431 54.5351 9.61431ZM40.8248 6.60135C36.7825 6.60135 34.6485 8.82429 34.6485 12.7747V13.5087C34.6485 18.6359 37.6453 19.956 41.2182 19.956C44.691 19.956 46.2629 18.9762 46.2629 18.9762L45.5458 16.3672C45.5458 16.3672 43.6967 17.1607 41.6777 17.1607C39.5847 17.1607 38.6845 16.6226 38.4538 14.5938H46.5693V12.5007C46.5693 8.21555 44.1743 6.60125 40.8247 6.60125L40.8248 6.60135ZM40.9222 9.2139C42.3214 9.2139 43.2281 10.0793 43.1783 12.0864H38.4608C38.5426 9.97398 39.5204 9.214 40.9222 9.214V9.2139ZM68.4718 6.58376C64.3207 6.58376 62.1353 8.94322 62.1353 13.1715C62.1353 18.973 65.9024 19.9068 68.4787 19.9068C72.2503 19.9068 74.7595 17.8588 74.7595 13.2242C74.7595 8.40042 71.9381 6.58376 68.4718 6.58376ZM68.4196 9.62481C70.2449 9.62481 70.9681 11.0027 70.9681 12.5711V13.9196C70.9681 15.8196 69.9561 16.9185 68.4126 16.9185C66.9691 16.9185 65.9546 15.8905 65.9546 13.9196V12.5711C65.9546 10.469 67.1618 9.62481 68.4196 9.62481ZM82.3946 6.58376C78.2435 6.58376 76.0581 8.94322 76.0581 13.1715C76.0581 18.973 79.8252 19.9068 82.4015 19.9068C86.173 19.9068 88.6823 17.8588 88.6823 13.2242C88.6823 8.40042 85.8608 6.58376 82.3946 6.58376ZM82.3424 9.62481C84.1676 9.62481 84.8908 11.0027 84.8908 12.5711V13.9196C84.8908 15.8196 83.8788 16.9185 82.3354 16.9185C80.8919 16.9185 79.8774 15.8905 79.8774 13.9196V12.5711C79.8774 10.469 81.0846 9.62481 82.3424 9.62481ZM90.1306 19.6491V0.433451L93.9742 0.0963115V12.9758L97.7876 6.8387H101.847L97.8688 13.195L102 19.6491H97.9293L93.9742 13.3822V19.6491H90.1306Z" fill="#1877F2"/>
</svg>