<svg xmlns="http://www.w3.org/2000/svg" width="74" height="24" viewBox="0 0 74 24" fill="none">
<g clip-path="url(#clip0_13_1251)">
<path d="M9.11354 0.00219727H9.77159C12.0562 0.0515458 14.3035 0.964494 15.9176 2.58066C15.3216 3.18518 14.7132 3.76503 14.1296 4.36955C13.2233 3.55529 12.1307 2.9261 10.9387 2.70403C9.17562 2.33392 7.27596 2.66702 5.79844 3.66633C4.18434 4.71499 3.09173 6.49154 2.85582 8.39146C2.59508 10.2667 3.12898 12.2406 4.35817 13.6964C5.5377 15.1152 7.33804 16.0035 9.20045 16.0652C10.9387 16.1639 12.7515 15.6334 14.0179 14.4243C15.0112 13.5731 15.4706 12.2777 15.6196 11.0193C13.5585 11.0193 11.4974 11.0316 9.43636 11.0193V8.47781H18.1152C18.5622 11.2043 17.9166 14.2763 15.8307 16.2255C14.44 17.6073 12.5156 18.4216 10.5538 18.5819C8.65414 18.767 6.6924 18.4092 5.00381 17.4963C2.97998 16.4229 1.36589 14.6094 0.571258 12.475C-0.173708 10.5134 -0.186124 8.29276 0.509178 6.31882C1.1424 4.51759 2.35918 2.9261 3.92361 1.81576C5.42596 0.717752 7.25112 0.113232 9.11354 0.00219727Z" fill="#3780FF"/>
<path d="M58.9021 0.643555H61.5591V18.261C60.6776 18.261 59.7836 18.2733 58.9021 18.2487C58.9145 12.3885 58.9021 6.51604 58.9021 0.643555Z" fill="#38B137"/>
<path d="M24.0252 6.75055C25.6641 6.44212 27.4396 6.78756 28.793 7.7622C30.0222 8.6258 30.8789 9.98288 31.1396 11.4633C31.4749 13.1782 31.0527 15.0535 29.9353 16.4105C28.7309 17.928 26.7567 18.7423 24.8322 18.6189C23.0691 18.5202 21.3557 17.6442 20.3128 16.2131C19.1332 14.634 18.8477 12.4627 19.4933 10.6121C20.1389 8.6258 21.9641 7.10833 24.0252 6.75055ZM24.3977 9.09461C23.7272 9.26733 23.1064 9.64978 22.6594 10.1926C21.4551 11.6237 21.5295 13.9554 22.8581 15.2879C23.6155 16.0528 24.7577 16.4105 25.8131 16.2008C26.794 16.0281 27.6507 15.3742 28.1225 14.5106C28.942 13.0425 28.7061 11.0192 27.452 9.87185C26.645 9.13162 25.4655 8.82319 24.3977 9.09461Z" fill="#FA3913"/>
<path d="M37.1863 6.75048C39.0611 6.39271 41.1098 6.91087 42.5128 8.2186C44.7974 10.2542 45.0457 14.0664 43.0964 16.4105C41.9169 17.8909 40.0048 18.7052 38.1175 18.6188C36.3172 18.5695 34.5417 17.6812 33.4739 16.2131C32.2695 14.5969 32.0088 12.3762 32.6917 10.4886C33.3746 8.56404 35.1625 7.09592 37.1863 6.75048ZM37.5588 9.09454C36.8883 9.26726 36.2675 9.64971 35.8205 10.1802C34.6286 11.5866 34.6783 13.8814 35.9571 15.2261C36.7145 16.028 37.894 16.4228 38.9867 16.2007C39.9551 16.0157 40.8242 15.3741 41.296 14.5105C42.1031 13.0301 41.8672 11.0068 40.6007 9.85945C39.7937 9.11922 38.6142 8.82312 37.5588 9.09454Z" fill="#FCBD06"/>
<path d="M48.3484 7.46618C49.7763 6.5779 51.6759 6.33116 53.2155 7.09606C53.6998 7.3058 54.0971 7.66357 54.482 8.02135C54.4944 7.68825 54.482 7.34281 54.4944 6.99737C55.3263 7.0097 56.1581 6.99737 57.0024 7.0097V17.8911C56.99 19.5319 56.5679 21.2714 55.3759 22.4681C54.0722 23.7882 52.0732 24.1953 50.2729 23.9239C48.3484 23.6402 46.6722 22.2461 45.9273 20.4819C46.6722 20.1241 47.4545 19.8403 48.2243 19.5072C48.6588 20.5189 49.5404 21.3825 50.6454 21.5799C51.7504 21.7773 53.0293 21.5058 53.7494 20.5929C54.5192 19.6553 54.5192 18.3722 54.482 17.2249C53.9108 17.78 53.2528 18.2735 52.4581 18.4586C50.7323 18.9397 48.8326 18.3475 47.5041 17.1878C46.1632 16.0282 45.3686 14.2393 45.443 12.4627C45.4803 10.4518 46.6226 8.51484 48.3484 7.46618ZM50.9186 9.04533C50.1612 9.1687 49.4534 9.58817 48.9692 10.168C47.8021 11.5498 47.8021 13.7581 48.9816 15.1152C49.6521 15.9171 50.7323 16.3613 51.7753 16.2502C52.7561 16.1515 53.6625 15.5347 54.1467 14.6834C54.9662 13.24 54.8296 11.2784 53.7246 10.02C53.0417 9.24273 51.9491 8.86028 50.9186 9.04533Z" fill="#3780FF"/>
<path d="M64.75 8.09526C66.2399 6.7135 68.5369 6.24469 70.449 6.97258C72.2617 7.65112 73.4164 9.36599 74 11.1302C71.3057 12.2405 68.6238 13.3385 65.9295 14.4489C66.302 15.1521 66.8731 15.7936 67.6429 16.0527C68.7231 16.4352 70.0144 16.2995 70.9208 15.5839C71.2808 15.3125 71.5664 14.9547 71.8396 14.6093C72.5224 15.0657 73.2053 15.5099 73.8882 15.9664C72.9198 17.4098 71.2932 18.4215 69.5426 18.5818C67.6057 18.8162 65.5446 18.076 64.2906 16.5709C62.2295 14.2021 62.4282 10.2296 64.75 8.09526ZM66.0785 10.3776C65.6563 10.9822 65.4825 11.7224 65.4949 12.4503C67.2953 11.71 69.0956 10.9698 70.8959 10.2173C70.5979 9.52637 69.8778 9.10691 69.1453 8.99587C67.9657 8.78614 66.7365 9.41534 66.0785 10.3776Z" fill="#FA3913"/>
</g>
<defs>
<clipPath id="clip0_13_1251">
<rect width="74" height="24" fill="white"/>
</clipPath>
</defs>
</svg>