<svg width="40" height="40" viewBox="0 0 40 40" fill="none" xmlns="http://www.w3.org/2000/svg">
<path d="M37.3695 33.875L30.3383 16.8438C30.2084 16.5292 29.9881 16.2603 29.7053 16.0711C29.4225 15.8819 29.0899 15.7809 28.7496 15.7809C28.4093 15.7809 28.0767 15.8819 27.7939 16.0711C27.5111 16.2603 27.2908 16.5292 27.1609 16.8438L20.1297 33.875C20.0423 34.0839 19.997 34.3079 19.9964 34.5344C19.9958 34.7608 20.04 34.9851 20.1264 35.1944C20.2127 35.4037 20.3396 35.5938 20.4997 35.754C20.6598 35.9141 20.85 36.041 21.0593 36.1274C21.2685 36.2138 21.4928 36.258 21.7193 36.2574C21.9457 36.2569 22.1698 36.2116 22.3786 36.1242C22.5875 36.0368 22.7771 35.909 22.9364 35.7481C23.0957 35.5872 23.2217 35.3964 23.307 35.1867L24.7391 31.7188H32.7602L34.1922 35.1867C34.322 35.5014 34.5423 35.7704 34.8252 35.9597C35.1081 36.149 35.4409 36.25 35.7812 36.25C36.0637 36.2498 36.3417 36.1801 36.5908 36.0469C36.8398 35.9137 37.0522 35.7212 37.2091 35.4864C37.3661 35.2516 37.4628 34.9817 37.4906 34.7007C37.5184 34.4196 37.4766 34.136 37.3688 33.875H37.3695ZM26.1586 28.2812L28.75 22.0039L31.3414 28.2812H26.1586ZM20.925 26.7906C21.192 26.4218 21.3018 25.9621 21.2301 25.5124C21.1585 25.0627 20.9114 24.6598 20.543 24.3922C20.5273 24.3805 19.3711 23.5227 17.6922 21.6789C20.7898 17.4852 22.5445 12.7141 23.2602 10.4688H25.7812C26.2371 10.4688 26.6743 10.2877 26.9966 9.96534C27.3189 9.64301 27.5 9.20584 27.5 8.75C27.5 8.29416 27.3189 7.85699 26.9966 7.53466C26.6743 7.21233 26.2371 7.03125 25.7812 7.03125H16.7188V5.46875C16.7188 5.01291 16.5377 4.57574 16.2153 4.25341C15.893 3.93108 15.4558 3.75 15 3.75C14.5442 3.75 14.107 3.93108 13.7847 4.25341C13.4623 4.57574 13.2812 5.01291 13.2812 5.46875V7.03125H4.21875C3.76291 7.03125 3.32574 7.21233 3.00341 7.53466C2.68108 7.85699 2.5 8.29416 2.5 8.75C2.5 9.20584 2.68108 9.64301 3.00341 9.96534C3.32574 10.2877 3.76291 10.4688 4.21875 10.4688H19.6289C18.8852 12.5742 17.5156 15.8984 15.4266 18.9344C12.9727 15.6781 12.0609 13.5711 12.0539 13.5539C11.8743 13.1387 11.5382 12.8111 11.1186 12.6421C10.6989 12.4732 10.2296 12.4764 9.81239 12.6512C9.39516 12.826 9.06365 13.1582 8.88978 13.5758C8.71591 13.9935 8.71368 14.4628 8.88359 14.882C8.92891 14.9898 10.0203 17.5563 13.0133 21.4391C13.0852 21.532 13.1562 21.6227 13.2273 21.7133C10.1617 25.1781 7.15391 27.3273 5.89531 28.0211C5.4951 28.2394 5.198 28.6077 5.06936 29.045C4.94073 29.4824 4.99109 29.9529 5.20937 30.3531C5.42766 30.7533 5.79599 31.0504 6.23333 31.1791C6.67067 31.3077 7.1412 31.2573 7.54141 31.0391C7.71016 30.9469 11.3383 28.9383 15.4813 24.3523C17.2406 26.2336 18.45 27.1211 18.5227 27.1727C18.7055 27.3054 18.9127 27.4009 19.1324 27.4535C19.3521 27.5061 19.5801 27.5149 19.8032 27.4794C20.0263 27.4438 20.2403 27.3646 20.4328 27.2463C20.6252 27.128 20.7925 26.9729 20.925 26.7898V26.7906Z" fill="#F9AD2B"/>
</svg>
