<svg width="40" height="40" viewBox="0 0 40 40" fill="none" xmlns="http://www.w3.org/2000/svg">
<path d="M3.42659 32.5251L13.5733 22.2751L19.0566 27.5251L25.7583 21.6667L29.4916 25.3067M36.6666 9.16675C36.6666 8.50371 36.4032 7.86782 35.9344 7.39898C35.4655 6.93014 34.8296 6.66675 34.1666 6.66675H5.83325C5.17021 6.66675 4.53433 6.93014 4.06549 7.39898C3.59664 7.86782 3.33325 8.50371 3.33325 9.16675V16.6667H36.6666V9.16675Z" stroke="#F9AD2B" stroke-width="2.5" stroke-linecap="round" stroke-linejoin="round"/>
<path d="M15.9266 11.6667H30.9266M9.25825 11.6667H10.9249M3.33325 15.0001V22.5001M36.6666 15.0001V30.8334C36.6666 31.4965 36.4032 32.1323 35.9344 32.6012C35.4655 33.07 34.8296 33.3334 34.1666 33.3334H9.99992H36.6666V15.0001Z" stroke="#F9AD2B" stroke-width="2.5" stroke-linecap="round" stroke-linejoin="round"/>
</svg>
