<svg xmlns="http://www.w3.org/2000/svg" width="20" height="21" viewBox="0 0 20 21" fill="none">
  <g clip-path="url(#clip0_445_3094)">
    <path fill-rule="evenodd" clip-rule="evenodd" d="M1.56661 7.57399H7.58661C7.98661 7.57399 8.31328 7.91699 8.31328 8.33699V12.761C8.31328 13.181 7.98661 13.524 7.58661 13.524H1.39328C0.993277 13.524 0.666611 13.181 0.666611 12.761V7.29399C0.666611 7.09799 0.819944 6.95799 1.01328 6.93699L6.55994 6.18799C6.74661 6.18799 6.90661 6.35599 6.90661 6.55199V7.16799H1.21994C1.21994 7.42699 1.29328 7.57399 1.56661 7.57399ZM4.94661 12.418C4.43994 12.516 3.78661 12.341 3.43328 11.942C3.27328 11.76 3.53328 11.487 3.69328 11.669C3.92661 11.942 4.35328 12.068 4.69994 12.061C5.13994 12.047 5.53328 11.627 5.28661 11.158C4.93994 10.507 4.07994 10.689 3.63994 10.178C3.28661 9.75799 3.45328 9.11399 3.87328 8.81999C4.30661 8.51899 5.05994 8.53299 5.41994 8.96699C5.57328 9.14899 5.31328 9.42199 5.15994 9.23299C4.86661 8.88999 4.18661 8.93199 3.92661 9.29599C3.55328 9.80699 4.11328 10.08 4.49994 10.206C5.03328 10.374 5.61994 10.682 5.71994 11.326C5.79994 11.844 5.41328 12.32 4.94661 12.418Z" fill="white"/>
    <path fill-rule="evenodd" clip-rule="evenodd" d="M4.94682 12.4182C4.44015 12.5232 3.78682 12.3412 3.43348 11.9422C3.27348 11.7602 3.53348 11.4872 3.69348 11.6692C3.92682 11.9422 4.35348 12.0682 4.70015 12.0612C5.14015 12.0472 5.53348 11.6272 5.28682 11.1582C4.94015 10.5072 4.08015 10.6892 3.64015 10.1782C3.28682 9.75819 3.45348 9.11419 3.87348 8.82019C4.30682 8.51919 5.06015 8.53319 5.42015 8.96719C5.57348 9.14919 5.31348 9.42219 5.16015 9.23319C4.86682 8.89019 4.18682 8.93219 3.92682 9.29619C3.55348 9.80719 4.11348 10.0802 4.50015 10.2062C5.03348 10.3742 5.62015 10.6822 5.72015 11.3262C5.80015 11.8442 5.41348 12.3202 4.94682 12.4182Z" fill="#F0592C"/>
    <path d="M15.3067 7.30116C15.0934 7.30116 14.9001 7.39916 14.7667 7.54616V7.37116C14.7667 7.21016 14.5267 7.21016 14.5267 7.37116V9.45716C14.5267 9.61816 14.7667 9.61816 14.7667 9.45716V8.53316C14.9001 8.68016 15.0934 8.77816 15.3067 8.77816C15.7067 8.77816 16.0334 8.44916 16.0334 8.03616C16.0334 7.63016 15.7067 7.30116 15.3067 7.30116ZM15.3067 8.51216C15.0534 8.51216 14.8467 8.30216 14.8467 8.03616C14.8467 7.80516 15.0134 7.60916 15.2334 7.57416H15.2401C15.2601 7.56716 15.2867 7.56716 15.3067 7.56716C15.5001 7.56716 15.6601 7.68616 15.7334 7.84716V7.85416C15.7601 7.91016 15.7734 7.97316 15.7734 8.03616C15.7734 8.30216 15.5667 8.51216 15.3067 8.51216ZM13.5134 8.77816C13.1134 8.77816 12.7867 8.44916 12.7867 8.03616C12.7867 7.63016 13.1134 7.30116 13.5134 7.30116C13.9067 7.30116 14.2334 7.63016 14.2334 8.03616C14.2334 8.44916 13.9067 8.77816 13.5134 8.77816ZM13.5134 7.56716C13.2534 7.56716 13.0467 7.77716 13.0467 8.03616C13.0467 8.30216 13.2534 8.51216 13.5134 8.51216C13.7667 8.51216 13.9734 8.30216 13.9734 8.03616C13.9734 7.77716 13.7667 7.56716 13.5134 7.56716ZM19.3334 8.02216C19.3267 7.68616 19.1601 7.37816 18.8067 7.30816C18.5001 7.25216 18.1467 7.41316 18.0134 7.70716C17.8801 8.00816 17.9334 8.42116 18.2001 8.63116C18.4867 8.85516 18.9401 8.78516 19.2334 8.61716C19.3667 8.54016 19.2467 8.33016 19.1067 8.40716C18.9201 8.51216 18.6801 8.56816 18.4667 8.49116C18.3134 8.44216 18.2267 8.30216 18.2001 8.14816H19.2134C19.2734 8.14816 19.3334 8.09216 19.3334 8.02216ZM18.2067 7.90316C18.2067 7.88916 18.2134 7.88216 18.2134 7.87516C18.2734 7.67216 18.4734 7.55316 18.6734 7.54616C18.9067 7.53916 19.0334 7.70716 19.0734 7.90316H18.2067ZM17.7134 8.02916C17.7067 7.68616 17.5334 7.37816 17.1801 7.31516C16.8734 7.25216 16.5201 7.42016 16.3934 7.70716C16.2534 8.00816 16.3134 8.42116 16.5801 8.63116C16.8667 8.86216 17.3134 8.79216 17.6067 8.62416C17.7467 8.54716 17.6201 8.33016 17.4867 8.40716C17.3001 8.51216 17.0534 8.56816 16.8467 8.49816C16.6867 8.44216 16.6001 8.30216 16.5734 8.14816H17.5867C17.6534 8.14816 17.7134 8.09216 17.7134 8.02916ZM16.5867 7.90316C16.5867 7.89616 16.5867 7.88216 16.5934 7.87516C16.6467 7.67216 16.8467 7.55316 17.0534 7.55316C17.2801 7.54616 17.4134 7.70716 17.4534 7.90316H16.5867ZM12.5001 7.79116V8.65216C12.5001 8.81316 12.2534 8.81316 12.2534 8.65216V7.80516C12.2467 7.63716 12.1134 7.56016 12.1067 7.56016C11.9334 7.47616 11.6201 7.51816 11.4334 7.76316V8.65216C11.4334 8.81316 11.1867 8.81316 11.1867 8.65216V6.43316C11.1867 6.27216 11.4334 6.27216 11.4334 6.43316V7.42716C11.7267 7.21716 12.1067 7.24516 12.2867 7.37116C12.2867 7.37116 12.5067 7.49716 12.5001 7.79116ZM10.7867 6.53816C10.5467 6.25816 10.0467 6.25116 9.7534 6.44716C9.48007 6.62916 9.36674 7.04916 9.60007 7.31516C9.8934 7.64416 10.4667 7.52516 10.7001 7.94516C10.8667 8.24616 10.6001 8.51916 10.3067 8.52616C10.0801 8.52616 9.7934 8.44916 9.6334 8.27416C9.52674 8.16216 9.3534 8.33016 9.46007 8.44916C9.70007 8.70816 10.1334 8.82016 10.4734 8.75716C10.7867 8.69416 11.0401 8.38616 10.9867 8.05016C10.9267 7.63716 10.5267 7.44116 10.1734 7.32916C9.9134 7.25216 9.54674 7.07716 9.7934 6.74816C9.96674 6.51716 10.4201 6.48916 10.6134 6.71316C10.7201 6.83216 10.8867 6.65716 10.7867 6.53816Z" fill="white"/>
    <path fill-rule="evenodd" clip-rule="evenodd" d="M17.1468 14.8123H16.3668L17.2001 13.1673L15.8401 10.4653H16.6801L17.6201 12.3343L18.5601 10.4653H19.3334L17.1468 14.8123ZM9.42676 13.5243H10.0801V12.2783H10.9534C11.8601 12.2783 12.5934 11.6063 12.5934 10.7873C12.5934 9.96131 11.8601 9.28931 10.9534 9.28931H9.42676C9.42676 10.7033 9.42676 12.1103 9.42676 13.5243ZM10.0801 11.5923V9.97531H10.9534C11.4468 9.97531 11.8468 10.3323 11.8468 10.7803C11.8468 11.2283 11.4468 11.5923 10.9534 11.5923H10.0801ZM15.0268 10.4933H15.6001V13.4963H15.0268V13.1603C14.7734 13.3843 14.4468 13.5243 14.0868 13.5243C13.2801 13.5243 12.6268 12.8383 12.6268 11.9913C12.6268 11.1513 13.2801 10.4653 14.0868 10.4653C14.4468 10.4653 14.7734 10.6053 15.0268 10.8293V10.4933ZM14.0868 11.1093C14.5468 11.1093 14.9268 11.5083 14.9268 11.9913C14.9268 12.4813 14.5468 12.8803 14.0868 12.8803C13.6201 12.8803 13.2401 12.4813 13.2401 11.9913C13.2401 11.5083 13.6201 11.1093 14.0868 11.1093Z" fill="white"/>
  </g>
  <defs>
    <clipPath id="clip0_445_3094">
      <rect width="20" height="21" fill="white"/>
    </clipPath>
  </defs>
</svg>