<svg width="27" height="41" viewBox="0 0 27 41" fill="none" xmlns="http://www.w3.org/2000/svg">
<g clip-path="url(#clip0_405_1417)">
<path d="M6.75134 41.0001C10.4766 41.0001 13.5 37.9388 13.5 34.1668V27.3335H6.75134C3.02608 27.3335 0.00268555 30.3948 0.00268555 34.1668C0.00268555 37.9388 3.02608 41.0001 6.75134 41.0001Z" fill="#0ACF83"/>
<path d="M0.00268555 20.5003C0.00268555 16.7283 3.02608 13.667 6.75134 13.667H13.5V27.3336H6.75134C3.02608 27.3336 0.00268555 24.2723 0.00268555 20.5003Z" fill="#A259FF"/>
<path d="M0.00268555 6.83333C0.00268555 3.06133 3.02608 0 6.75134 0H13.5V13.6667H6.75134C3.02608 13.6667 0.00268555 10.6053 0.00268555 6.83333Z" fill="#F24E1E"/>
<path d="M13.5 0H20.2487C23.9739 0 26.9973 3.06133 26.9973 6.83333C26.9973 10.6053 23.9739 13.6667 20.2487 13.6667H13.5V0Z" fill="#FF7262"/>
<path d="M26.9973 20.5003C26.9973 24.2723 23.9739 27.3336 20.2487 27.3336C16.5234 27.3336 13.5 24.2723 13.5 20.5003C13.5 16.7283 16.5234 13.667 20.2487 13.667C23.9739 13.667 26.9973 16.7283 26.9973 20.5003Z" fill="#1ABCFE"/>
</g>
<defs>
<clipPath id="clip0_405_1417">
<rect width="27" height="41" fill="white"/>
</clipPath>
</defs>
</svg>
